<?xml version="1.0" encoding="UTF-8"?>
<svg id="Layer_1" data-name="Layer 1" xmlns="http://www.w3.org/2000/svg" viewBox="0 0 218.75 50.61">
  <defs>
    <style>
      .cls-1 {
        fill: #1d1d1b;
      }

      .cls-2 {
        fill: #fff;
      }

      .cls-3 {
        fill: #e30613;
      }

      .cls-4 {
        fill: #009fe3;
      }
    </style>
  </defs>
  <g>
    <polygon class="cls-4" points="50.61 10.36 50.61 .02 40.37 .02 30.31 10.08 30.31 20.32 40.65 20.32 50.61 10.36"/>
    <polygon class="cls-4" points="20.3 40.63 20.3 30.29 10.06 30.29 0 40.35 0 50.59 10.34 50.59 20.3 40.63"/>
    <polygon class="cls-3" points="40.23 50.61 50.57 50.61 50.57 40.37 40.51 30.31 30.27 30.31 30.27 40.65 40.23 50.61"/>
    <polygon class="cls-3" points="9.96 20.3 20.3 20.3 20.3 10.06 10.24 0 0 0 0 10.34 9.96 20.3"/>
  </g>
  <g>
    <polygon class="cls-2" points="13.84 31.13 13.84 12.99 24.89 11.69 25.73 11.68 36.77 12.99 36.77 31.13 26.05 40.12 24.6 40.14 13.84 31.13"/>
    <path class="cls-2" d="M25.68,12.68l10.09,1.2v16.78l-10.09,8.47h-.72s-10.12-8.47-10.12-8.47V13.88l10.12-1.19h.72M25.78,10.68h-.13s-.72.01-.72.01h-.1s-.1.01-.1.01l-10.12,1.19-1.77.21v19.5l.72.6,10.12,8.48.57.48h.74s.72-.02.72-.02h.71s.55-.47.55-.47l10.09-8.47.71-.6V12.1l-1.76-.21-10.09-1.2-.13-.02h0Z"/>
  </g>
  <g>
    <polygon class="cls-4" points="24.95 12.69 14.84 13.87 14.84 30.66 24.95 39.13 24.95 12.69"/>
    <polygon class="cls-3" points="25.68 12.68 35.77 13.87 35.77 30.66 25.68 39.12 25.68 12.68"/>
  </g>
  <g>
    <path class="cls-1" d="M64.94,47.84v-13.95h3.24v11h5.6v2.95h-8.83Z"/>
    <path class="cls-1" d="M82.66,48.07c-3.75,0-5.84-2.02-5.84-5.9v-8.28h3.24v8.05c0,1.98.84,3.18,2.68,3.18s2.66-1.2,2.66-3.18v-8.05h3.24v8.28c0,3.88-2.23,5.9-5.98,5.9Z"/>
    <path class="cls-1" d="M101.7,47.84l-2.8-4.59-2.84,4.59h-3.81l4.59-6.81-4.59-7.14h3.86l2.82,4.61,2.84-4.61h3.79l-4.59,6.81,4.59,7.14h-3.86Z"/>
    <path class="cls-1" d="M109.35,47.84v-13.95h8.83v2.97h-5.6v2.49h5.1v2.82h-5.1v2.72h5.6v2.95h-8.83Z"/>
    <path class="cls-1" d="M134.28,47.84l-.17-6.85-3.86,4.89h-.34l-3.9-4.89-.13,6.85h-3.12l.65-14.05.44-.04,6.32,7.98,6.17-7.98.44.04.67,14.05h-3.14Z"/>
    <path class="cls-1" d="M146.35,47.97c-1.22,0-2.8-.11-4.17-.29v-13.63c1.01-.15,2.76-.3,3.9-.3,4.05,0,6.11,1.81,6.11,3.75,0,1.46-.82,2.45-2.4,3.1,1.9.57,2.8,1.67,2.8,3.27,0,2.17-2.06,4.09-6.24,4.09ZM146.79,36.57c-.59,0-1.01.06-1.47.13v2.91c.36.04.61.06,1.2.06,1.56,0,2.34-.57,2.34-1.58,0-.84-.7-1.52-2.07-1.52ZM146.54,41.86c-.49,0-.89.02-1.22.06v3.24c.46.04.7.06,1.35.06,1.64,0,2.42-.63,2.42-1.67s-.84-1.68-2.55-1.68Z"/>
    <path class="cls-1" d="M163.52,48.07c-4.32,0-7.08-3.1-7.08-7.19s2.89-7.21,7.21-7.21,7.08,3.1,7.08,7.21-2.91,7.19-7.21,7.19ZM163.58,36.55c-2.21,0-3.69,1.81-3.69,4.32s1.48,4.32,3.69,4.32,3.69-1.83,3.69-4.32-1.48-4.32-3.69-4.32Z"/>
    <path class="cls-1" d="M180.9,48.07c-3.75,0-5.84-2.02-5.84-5.9v-8.28h3.24v8.05c0,1.98.84,3.18,2.68,3.18s2.66-1.2,2.66-3.18v-8.05h3.24v8.28c0,3.88-2.23,5.9-5.98,5.9Z"/>
    <path class="cls-1" d="M199.02,47.84l-2.38-4.55c-.19.02-.36.02-.55.02-.48,0-.74-.02-1.2-.04v4.57h-3.24v-13.82c1.18-.13,2.47-.23,4.11-.23,4.34,0,6.05,2.07,6.05,4.62,0,1.66-.89,3.14-2.4,4.04l3.27,5.39h-3.67ZM196.14,36.69c-.49,0-.8.02-1.26.1v3.84c.42.04.65.06,1.03.06,1.54,0,2.53-.74,2.53-2.15,0-1.16-.91-1.85-2.3-1.85Z"/>
    <path class="cls-1" d="M218.26,40v6.66c-1.54.89-3.18,1.41-5.29,1.41-4.09,0-7.33-2.93-7.33-7.19s3.27-7.21,7.5-7.21c1.83,0,3.29.48,4.68,1.2l-1.35,2.61c-.99-.51-2.06-.78-3.12-.78-2.78,0-4.26,1.73-4.26,4.19,0,2.67,1.79,4.32,4.07,4.32,1.03,0,1.54-.11,2.06-.38v-2.06h-2.8v-2.76h5.84Z"/>
  </g>
  <g>
    <path class="cls-4" d="M69.61,22.97c-.33,0-.69-.03-1.07-.08-.38-.05-.77-.17-1.15-.34-.38-.17-.75-.42-1.1-.74-.35-.32-.66-.74-.93-1.26s-.48-1.16-.64-1.93c-.16-.76-.24-1.68-.24-2.73v-7.5c0-1.07.08-1.98.25-2.73.17-.76.38-1.39.66-1.91s.59-.93.94-1.23c.35-.31.72-.54,1.1-.7s.76-.27,1.13-.32c.38-.05.72-.07,1.05-.07.84,0,1.55.12,2.11.35s1.02.56,1.36.97.59.89.73,1.43c.14.54.22,1.12.22,1.74,0,.45-.02.87-.07,1.26-.04.38-.11.81-.2,1.27h-2.6v-1.08c0-1.17-.13-2.04-.38-2.62s-.63-.87-1.13-.87c-.3,0-.56.06-.78.17-.22.12-.41.31-.56.59-.15.28-.26.64-.34,1.1-.08.46-.12,1.02-.12,1.7v9.67c0,.66.03,1.21.09,1.65.06.44.16.79.3,1.05s.32.45.55.56c.23.11.5.17.82.17.21,0,.4-.05.59-.14s.36-.24.5-.45.26-.46.35-.77c.09-.31.13-.68.13-1.1v-2.07h2.94v1.96c0,1.7-.39,2.96-1.17,3.77-.78.81-1.89,1.22-3.35,1.23Z"/>
    <path class="cls-4" d="M79.68,15.73l-4.26-14.12h3.24l2.59,10.13h.15l2.57-10.13h3.22l-4.29,14.12v7.05h-3.21v-7.05Z"/>
    <path class="cls-4" d="M89.55,1.62h3.25c.48,0,.98.02,1.49.05.51.03,1.01.1,1.5.21s.95.27,1.39.48c.44.21.82.49,1.15.85.33.36.59.8.78,1.32.19.52.29,1.15.29,1.89v1.03c0,.56-.08,1.08-.24,1.55-.16.47-.37.89-.64,1.25-.26.36-.57.66-.91.89s-.69.39-1.04.48v.1c1.05.19,1.84.69,2.37,1.49.53.81.8,1.84.8,3.09v1.08c0,.77-.08,1.44-.25,2-.17.57-.41,1.05-.71,1.45-.31.4-.67.73-1.09.99-.42.26-.88.46-1.39.6-.5.14-1.04.24-1.61.3s-1.16.08-1.76.08h-3.37V1.62ZM93.32,10.68c.43,0,.82-.05,1.18-.16s.66-.26.91-.48.45-.5.58-.86c.14-.35.2-.77.2-1.27v-.87c0-.5-.05-.93-.15-1.31-.1-.38-.26-.7-.49-.97-.23-.26-.52-.46-.89-.6-.37-.14-.82-.21-1.34-.21h-.62v6.72h.62ZM93.62,20.55c.43,0,.82-.06,1.17-.17.35-.11.65-.29.9-.52s.45-.54.58-.9c.14-.36.2-.79.2-1.29v-1.65c0-.5-.05-.94-.15-1.32-.1-.38-.26-.71-.49-.97-.23-.26-.52-.46-.89-.59-.36-.14-.81-.21-1.34-.21h-.92v7.61h.92Z"/>
    <path class="cls-4" d="M103.04,1.62h7.85v2.53h-4.64v6.33h3.58v2.53h-3.58v7.25h4.76v2.53h-7.97V1.62Z"/>
    <path class="cls-4" d="M113.83,1.62h3.48c.4,0,.83.02,1.31.05.47.03.95.11,1.42.24.48.13.93.32,1.38.58s.83.61,1.18,1.05.62,1.01.82,1.68c.21.67.31,1.49.31,2.45v.53c0,1.61-.23,2.92-.69,3.94-.46,1.01-1.14,1.74-2.04,2.19l3.4,8.47h-3.4l-2.81-7.92h-1.2v7.92h-3.15V1.62ZM117.47,12.55c.56,0,1.04-.06,1.43-.19.39-.12.7-.33.94-.63s.41-.68.52-1.17.16-1.08.16-1.79v-1.67c0-.54-.05-1.02-.15-1.41-.1-.4-.27-.72-.5-.98-.24-.26-.55-.45-.94-.57-.39-.12-.88-.19-1.46-.19h-.48v8.59h.48Z"/>
    <path class="cls-4" d="M126.51,18.5c0-.45.03-.87.08-1.26.05-.38.13-.8.24-1.25h2.49v1.03c0,.57.03,1.07.1,1.51.07.44.19.81.35,1.11.16.3.38.53.64.68.27.15.6.23.99.23.61,0,1.08-.17,1.4-.5.32-.33.48-.82.48-1.47,0-.33-.02-.63-.07-.91-.04-.28-.12-.55-.24-.82-.11-.27-.26-.56-.45-.86-.19-.3-.43-.64-.73-1.01l-3.35-3.98c-.59-.76-1.05-1.53-1.38-2.3-.32-.77-.48-1.6-.48-2.47,0-.7.11-1.35.33-1.93.22-.59.53-1.09.95-1.52.41-.42.92-.76,1.53-.99s1.29-.35,2.06-.35c.93,0,1.71.13,2.34.4.62.26,1.12.61,1.49,1.04s.63.91.79,1.44.23,1.07.23,1.61c0,.45-.04.87-.11,1.26-.07.38-.15.81-.24,1.27h-2.48v-1c0-1.12-.16-1.99-.48-2.58-.32-.6-.85-.9-1.57-.9-.6,0-1.05.17-1.35.5-.3.33-.45.78-.45,1.35,0,.3.02.57.07.81.04.24.11.46.2.66.09.2.19.4.32.59.12.19.26.39.42.6l3.73,4.51c.68.88,1.2,1.73,1.56,2.55.36.81.54,1.68.54,2.58,0,.75-.12,1.43-.35,2.03s-.57,1.12-1.01,1.54c-.44.42-.97.75-1.59.97-.62.23-1.32.34-2.09.34-.96,0-1.75-.13-2.39-.38-.63-.26-1.14-.6-1.51-1.02-.38-.42-.64-.9-.79-1.44-.15-.54-.23-1.09-.23-1.65Z"/>
    <path class="cls-4" d="M139.69,1.62h7.85v2.53h-4.64v6.33h3.58v2.53h-3.58v7.25h4.76v2.53h-7.97V1.62Z"/>
    <path class="cls-4" d="M155.04,22.97c-.33,0-.69-.03-1.07-.08-.38-.05-.77-.17-1.15-.34-.38-.17-.75-.42-1.1-.74-.35-.32-.66-.74-.93-1.26s-.48-1.16-.64-1.93c-.16-.76-.24-1.68-.24-2.73v-7.5c0-1.07.08-1.98.25-2.73.17-.76.38-1.39.66-1.91s.59-.93.94-1.23c.35-.31.72-.54,1.1-.7s.76-.27,1.13-.32c.38-.05.72-.07,1.05-.07.84,0,1.55.12,2.11.35s1.02.56,1.36.97.59.89.73,1.43c.14.54.22,1.12.22,1.74,0,.45-.02.87-.07,1.26-.04.38-.11.81-.2,1.27h-2.6v-1.08c0-1.17-.13-2.04-.38-2.62s-.63-.87-1.13-.87c-.3,0-.56.06-.78.17-.22.12-.41.31-.56.59-.15.28-.26.64-.34,1.1-.08.46-.12,1.02-.12,1.7v9.67c0,.66.03,1.21.09,1.65.06.44.16.79.3,1.05s.32.45.55.56c.23.11.5.17.82.17.21,0,.4-.05.59-.14s.36-.24.5-.45.26-.46.35-.77c.09-.31.13-.68.13-1.1v-2.07h2.94v1.96c0,1.7-.39,2.96-1.17,3.77-.78.81-1.89,1.22-3.35,1.23Z"/>
    <path class="cls-4" d="M162.52,1.62h3.24v15.52c0,.66.03,1.21.1,1.65.07.44.17.79.32,1.05.14.26.33.45.56.56s.5.17.81.17.59-.06.82-.17.43-.3.58-.56c.15-.26.27-.61.35-1.05.08-.44.12-.99.12-1.65V1.62h3.2v14.66c0,1.03-.08,1.92-.25,2.65-.17.74-.38,1.35-.66,1.85s-.58.89-.94,1.18c-.35.29-.71.51-1.09.66-.38.15-.75.25-1.12.29-.37.04-.71.06-1.02.06s-.64-.02-1.01-.06c-.37-.04-.74-.14-1.11-.29-.37-.15-.73-.37-1.08-.66-.35-.29-.66-.68-.93-1.18s-.49-1.11-.65-1.84-.24-1.62-.24-2.66V1.62Z"/>
    <path class="cls-4" d="M176.66,1.62h3.48c.4,0,.83.02,1.31.05.47.03.95.11,1.42.24.48.13.93.32,1.38.58s.83.61,1.18,1.05.62,1.01.82,1.68c.21.67.31,1.49.31,2.45v.53c0,1.61-.23,2.92-.69,3.94-.46,1.01-1.14,1.74-2.04,2.19l3.4,8.47h-3.4l-2.81-7.92h-1.2v7.92h-3.15V1.62ZM180.29,12.55c.56,0,1.04-.06,1.43-.19.39-.12.7-.33.94-.63s.41-.68.52-1.17.16-1.08.16-1.79v-1.67c0-.54-.05-1.02-.15-1.41-.1-.4-.27-.72-.5-.98-.24-.26-.55-.45-.94-.57-.39-.12-.88-.19-1.46-.19h-.48v8.59h.48Z"/>
    <path class="cls-4" d="M190.16,1.62h3.21v21.17h-3.21V1.62Z"/>
    <path class="cls-4" d="M199.45,4.14h-3.41V1.62h10.01v2.53h-3.4v18.64h-3.21V4.14Z"/>
    <path class="cls-4" d="M211.25,15.73l-4.26-14.12h3.24l2.59,10.13h.15l2.57-10.13h3.22l-4.29,14.12v7.05h-3.21v-7.05Z"/>
  </g>
  <g>
    <path class="cls-2" d="M16.75,18.03c-.85,0-1.47-.64-1.47-1.51s.65-1.52,1.5-1.52,1.47.64,1.47,1.52-.65,1.51-1.5,1.51ZM16.77,15.45c-.56,0-.95.46-.95,1.07s.39,1.07.95,1.07.94-.46.94-1.07-.39-1.07-.94-1.07Z"/>
    <path class="cls-2" d="M20.24,18.03c-.85,0-1.47-.64-1.47-1.51s.65-1.52,1.5-1.52,1.47.64,1.47,1.52-.65,1.51-1.5,1.51ZM20.25,15.45c-.56,0-.95.46-.95,1.07s.39,1.07.95,1.07.94-.46.94-1.07-.39-1.07-.94-1.07Z"/>
    <path class="cls-2" d="M22.37,17.98v-2.93h.5v2.93h-.5Z"/>
    <path class="cls-2" d="M23.63,17.98v-2.93h.5v2.93h-.5Z"/>
    <path class="cls-2" d="M16.73,22.03c-.85,0-1.47-.64-1.47-1.51s.65-1.52,1.5-1.52,1.47.64,1.47,1.52-.65,1.51-1.5,1.51ZM16.75,19.45c-.56,0-.95.46-.95,1.07s.39,1.07.95,1.07.94-.46.94-1.07-.39-1.07-.94-1.07Z"/>
    <path class="cls-2" d="M19.51,21.98v-2.93h.5v2.93h-.5Z"/>
    <path class="cls-2" d="M22.76,22.03c-.85,0-1.47-.64-1.47-1.51s.65-1.52,1.5-1.52,1.47.64,1.47,1.52-.65,1.51-1.5,1.51ZM22.77,19.45c-.56,0-.95.46-.95,1.07s.39,1.07.95,1.07.94-.46.94-1.07-.39-1.07-.94-1.07Z"/>
    <path class="cls-2" d="M16.59,26.03c-.85,0-1.47-.64-1.47-1.51s.65-1.52,1.5-1.52,1.47.64,1.47,1.52-.65,1.51-1.5,1.51ZM16.6,23.45c-.56,0-.95.46-.95,1.07s.39,1.07.95,1.07.94-.46.94-1.07-.39-1.07-.94-1.07Z"/>
    <path class="cls-2" d="M19.67,26.03c-.85,0-1.47-.64-1.47-1.51s.65-1.52,1.5-1.52,1.47.64,1.47,1.52-.65,1.51-1.5,1.51ZM19.69,23.45c-.56,0-.95.46-.95,1.07s.39,1.07.95,1.07.94-.46.94-1.07-.39-1.07-.94-1.07Z"/>
    <path class="cls-2" d="M22.76,26.03c-.85,0-1.47-.64-1.47-1.51s.65-1.52,1.5-1.52,1.47.64,1.47,1.52-.65,1.51-1.5,1.51ZM22.77,23.45c-.56,0-.95.46-.95,1.07s.39,1.07.95,1.07.94-.46.94-1.07-.39-1.07-.94-1.07Z"/>
    <path class="cls-2" d="M15.4,29.98v-2.93h.5v2.93h-.5Z"/>
    <path class="cls-2" d="M16.66,29.98v-2.93h.5v2.93h-.5Z"/>
    <path class="cls-2" d="M19.27,30.03c-.85,0-1.47-.64-1.47-1.51s.65-1.52,1.5-1.52,1.47.64,1.47,1.52-.65,1.51-1.5,1.51ZM19.29,27.45c-.56,0-.95.46-.95,1.07s.39,1.07.95,1.07.94-.46.94-1.07-.39-1.07-.94-1.07Z"/>
    <path class="cls-2" d="M22.76,30.03c-.85,0-1.47-.64-1.47-1.51s.65-1.52,1.5-1.52,1.47.64,1.47,1.52-.65,1.51-1.5,1.51ZM22.77,27.45c-.56,0-.95.46-.95,1.07s.39,1.07.95,1.07.94-.46.94-1.07-.39-1.07-.94-1.07Z"/>
    <path class="cls-2" d="M20.07,33.98v-2.93h.5v2.93h-.5Z"/>
    <path class="cls-2" d="M22.76,34.03c-.85,0-1.47-.64-1.47-1.51s.65-1.52,1.5-1.52,1.47.64,1.47,1.52-.65,1.51-1.5,1.51ZM22.77,31.45c-.56,0-.95.46-.95,1.07s.39,1.07.95,1.07.94-.46.94-1.07-.39-1.07-.94-1.07Z"/>
  </g>
</svg>